<?xml version="1.0" encoding="utf-8"?>
<!-- Generator: Adobe Illustrator 23.0.0, SVG Export Plug-In . SVG Version: 6.00 Build 0)  -->
<svg version="1.1" id="Capa_1" xmlns="http://www.w3.org/2000/svg" xmlns:xlink="http://www.w3.org/1999/xlink" x="0px" y="0px"
	 viewBox="0 0 28.5 53.9" style="enable-background:new 0 0 28.5 53.9;" xml:space="preserve">
<style type="text/css">
	.st0{fill:#015cee;}
</style>
<g>
	<g>
		<circle class="st0" cx="14.4" cy="4.9" r="4.4"/>
		<path class="st0" d="M27.9,28.6C26.7,14.7,20,11.9,20,11.9S13.7,8.1,6.9,13c-4.4,4-5.4,10-6.1,15.9c-0.3,3,4.3,2.9,4.7,0
			c0.4-3.5,1-7,2.7-10v3.4v16.2v12.9c0,1.4,1,2.5,2.4,2.5s2.6-1.1,2.6-2.5V33h2.3c0,4.3,0,14.1,0,18.5c0,3,4.7,3,4.7,0
			c0-4.3,0-8.6,0-12.9l0.2-16.3c0-1.6,0-2.9,0-3.9c1.9,3,2.5,6.7,2.9,10.3C23.6,31.5,28.2,31.6,27.9,28.6z"/>
	</g>
</g>
</svg>
