<?xml version="1.0" encoding="utf-8"?>
<!-- Generator: Adobe Illustrator 23.0.0, SVG Export Plug-In . SVG Version: 6.00 Build 0)  -->
<svg version="1.1" id="Capa_1" xmlns="http://www.w3.org/2000/svg" xmlns:xlink="http://www.w3.org/1999/xlink" x="0px" y="0px"
	 viewBox="0 0 60.2 60.2" style="enable-background:new 0 0 60.2 60.2;" xml:space="preserve">
<style type="text/css">
	.st0{fill:#015cee;}
</style>
<g>
	<g>
		<path class="st0" d="M59.9,35.3c-1.3-2.6-2.7-5.3-4-7.9c-0.1,2.1-1.2,3.9-2.9,5c0.3,0.6,0.6,1.2,0.9,1.7c-2.6,0-5.2,0-7.8,0
			c0.1-1.1-0.2-2.3-0.8-3.2c-0.1-0.2-0.1-0.4-0.2-0.5c-3.3-5.5-9.3-6.1-15.1-7.1c-3.1-0.5-4.4,4.2-1.3,4.7c1.4,0.2,3,0.4,4.6,0.7
			l-11.6,0c-1.5-1.4-3-2.7-4.5-4.1c-0.9-0.8-2.5-1-3.4,0C11.3,27.3,9,30,6.6,32.7C6.2,33.1,6,33.6,6,34.1c-1.2,0-2.4,0-3.6,0
			c-3.1,0-3.1,4.9,0,4.9c6.2,0,12.3,0,18.5,0v0L41,39c0.1,0,0.2,0,0.4,0c5.4,0,10.8,0,16.2,0c0,0,0.1,0,0.1,0c0,0,0.1,0,0.1,0
			c1.2,0,2-0.8,2.2-1.7C60.3,36.7,60.3,36,59.9,35.3z M11.8,34.1c1.3-1.4,2.5-2.9,3.8-4.3c1.5,1.3,2.9,2.6,4.4,3.9
			c0.2,0.2,0.4,0.3,0.6,0.4C17.7,34.1,14.7,34.1,11.8,34.1z"/>
		<circle class="st0" cx="49.8" cy="26.4" r="5.2"/>
	</g>
</g>
</svg>
