<?xml version="1.0" encoding="utf-8"?>
<!-- Generator: Adobe Illustrator 23.0.0, SVG Export Plug-In . SVG Version: 6.00 Build 0)  -->
<svg version="1.1" id="Capa_1" xmlns="http://www.w3.org/2000/svg" xmlns:xlink="http://www.w3.org/1999/xlink" x="0px" y="0px"
	 viewBox="0 0 60.2 20.1" style="enable-background:new 0 0 60.2 20.1;" xml:space="preserve">
<style type="text/css">
	.st0{fill:#015cee;}
</style>
<g>
	<g>
		<path class="st0" d="M59.9,15.5c-1.3-2.6-2.7-5.3-4-7.9c-0.1,2.1-1.2,3.9-2.9,5c0.3,0.6,0.6,1.2,0.9,1.7c-2.6,0-5.2,0-7.8,0
			c0.1-1.1-0.2-2.3-0.8-3.2c-0.1-0.2-0.1-0.4-0.2-0.5C41.8,5.1,35.8,4.5,30,3.5c-3.1-0.5-4.4,4.2-1.3,4.7c1.4,0.2,3,0.4,4.6,0.7
			H21.7c-1.5-1.4-3-2.7-4.5-4.1c-0.9-0.8-2.5-1-3.4,0c-2.5,2.7-4.8,5.4-7.2,8.1C6.2,13.3,6,13.8,6,14.3c-1.2,0-2.4,0-3.6,0
			c-3.1,0-3.1,4.9,0,4.9c6.2,0,12.3,0,18.5,0l0,0H41c0.1,0,0.2,0,0.4,0c5.4,0,10.8,0,16.2,0h0.1h0.1c1.2,0,2-0.8,2.2-1.7
			C60.3,16.9,60.3,16.2,59.9,15.5z M11.8,14.3c1.3-1.4,2.5-2.9,3.8-4.3c1.5,1.3,2.9,2.6,4.4,3.9c0.2,0.2,0.4,0.3,0.6,0.4
			C17.7,14.3,14.7,14.3,11.8,14.3z"/>
		<circle class="st0" cx="49.8" cy="6.6" r="5.2"/>
	</g>
</g>
</svg>
