<?xml version="1.0" encoding="utf-8"?>
<!-- Generator: Adobe Illustrator 23.0.0, SVG Export Plug-In . SVG Version: 6.00 Build 0)  -->
<svg version="1.1" id="Capa_1" xmlns="http://www.w3.org/2000/svg" xmlns:xlink="http://www.w3.org/1999/xlink" x="0px" y="0px"
	 viewBox="0 0 53.4 53.4" style="enable-background:new 0 0 53.4 53.4;" xml:space="preserve">
<style type="text/css">
	.st0{fill:#015cee;}
</style>
<g>
	<g>
		<circle class="st0" cx="26.7" cy="4.4" r="4.4"/>
		<path class="st0" d="M40.2,28.1c-1.2-13.9-7.9-16.7-7.9-16.7S26,7.6,19.2,12.5c-4.4,4-5.4,10-6.1,15.9c-0.3,3,4.3,2.9,4.7,0
			c0.4-3.5,1-7,2.7-10l0,3.4l0,16.2v12.9c0,1.4,1,2.5,2.4,2.5c1.4,0,2.6-1.1,2.6-2.5V32.5h2.3c0,4.3,0,14.1,0,18.5c0,3,4.7,3,4.7,0
			c0-4.3,0-8.6,0-12.9l0.2-16.3c0-1.6,0-2.9,0-3.9c1.9,3,2.5,6.7,2.9,10.3C35.9,31,40.5,31.1,40.2,28.1z"/>
	</g>
</g>
</svg>
