<?xml version="1.0" encoding="utf-8"?>
<!-- Generator: Adobe Illustrator 23.0.0, SVG Export Plug-In . SVG Version: 6.00 Build 0)  -->
<svg version="1.1" id="레이어_1" xmlns="http://www.w3.org/2000/svg" xmlns:xlink="http://www.w3.org/1999/xlink" x="0px"
	 y="0px" viewBox="0 0 12 12" style="enable-background:new 0 0 12 12;" xml:space="preserve">
<style type="text/css">
	.st0{fill:#FFFFFF;}
	.st1{fill:#2786C5;}
</style>
<g>
	<circle class="st0" cx="6" cy="6" r="5.9"/>
	<title>passion_fruit_2_expanded</title>
	<path class="st1" d="M8.5,3.4c-0.3-0.3-0.9-0.3-1.3,0L3.5,7.1c0,0,0,0,0,0.1l0,0L3.1,8.5c0,0.1,0,0.2,0.1,0.2l0,0l0,0l1.4-0.3l0,0
		h0.1l3.7-3.6C8.8,4.3,8.8,3.8,8.5,3.4z M4.7,8L3.9,7.2L7,4.1l0.8,0.8L4.7,8z M3.6,8.1l0.2-0.6l0.6,0.6L3.8,8.3L3.6,8.1z M8.2,4.5
		L8,4.7L7.2,3.9l0.2-0.2c0.2-0.2,0.6-0.2,0.8,0C8.4,3.9,8.5,4.2,8.2,4.5L8.2,4.5z"/>
</g>
</svg>
