<?xml version="1.0" encoding="utf-8"?>
<!-- Generator: Adobe Illustrator 23.0.0, SVG Export Plug-In . SVG Version: 6.00 Build 0)  -->
<svg version="1.1" id="레이어_1" xmlns="http://www.w3.org/2000/svg" xmlns:xlink="http://www.w3.org/1999/xlink" x="0px"
	 y="0px" viewBox="0 0 11.7 11.7" style="enable-background:new 0 0 11.7 11.7;" xml:space="preserve">
<style type="text/css">
	.st0{fill:#FFFFFF;}
	.st1{fill:#2786C5;}
</style>
<g>
	<circle class="st0" cx="5.9" cy="5.9" r="5.9"/>
	<title>passion_fruit_2_expanded</title>
	<path class="st1" d="M8.4,3.3C8.1,3,7.5,3,7.1,3.3L3.4,7c0,0,0,0,0,0.1l0,0L3,8.4c0,0.1,0,0.2,0.1,0.2h0h0l1.4-0.3l0,0
		c0,0,0.1,0,0.1,0l3.7-3.6C8.7,4.2,8.7,3.7,8.4,3.3z M4.6,7.9L3.8,7.1L6.9,4l0.8,0.8L4.6,7.9z M3.5,8l0.2-0.6L4.3,8L3.7,8.2L3.5,8z
		 M8.1,4.4L7.9,4.6L7.1,3.8l0.2-0.2c0.2-0.2,0.6-0.2,0.8,0C8.3,3.8,8.4,4.1,8.1,4.4L8.1,4.4z"/>
</g>
</svg>
